<svg xmlns="http://www.w3.org/2000/svg" xmlns:svg="http://www.w3.org/2000/svg" width="512"
  height="512">
  <linearGradient id="nLiKpYfjMMg2S87ClFzcba" x1="0.5" x2="0.5" y1="-0.02" y2="0.59">
    <stop offset="0" stop-color="#fed100" />
    <stop offset="1" stop-color="#e38101" />
  </linearGradient>
  <defs>
    <linearGradient id="svg_10" x1="0.5" x2="0.5" y1="0" y2="1">
      <stop offset="0" stop-color="#A2392F" stop-opacity="1" />
      <stop offset="1" stop-color="#D0675D" />
    </linearGradient>
  </defs>
  <linearGradient id="nLiKpYfjMMg2S87ClFzcbb" x1="0" x2="1" y1="0.5" y2="0.5">
    <stop offset="0" stop-color="#d4943b" />
    <stop offset="1" stop-color="#c2620e" />
    <stop offset="1" stop-color="#c2620e" />
  </linearGradient>
  <linearGradient id="nLiKpYfjMMg2S87ClFzcbc" x1="0" x2="1" y1="0.5" y2="0.5">
    <stop offset="0" stop-color="#d4943b" />
    <stop offset="1" stop-color="#c2620e" />
    <stop offset="1" stop-color="#c2620e" />
  </linearGradient>
  <linearGradient id="nLiKpYfjMMg2S87ClFzcbd" x1="0.5" x2="0.5" y1="0.15" y2="1.3">
    <stop offset="0" stop-color="#fed100" />
    <stop offset="1" stop-color="#e38101" />
  </linearGradient>
  <linearGradient id="nLiKpYfjMMg2S87ClFzcbe" x1="0.5" x2="0.5" y1="-0.35" y2="0.99">
    <stop offset="0" stop-color="#fed100" />
    <stop offset="1" stop-color="#e38101" />
  </linearGradient>
  <linearGradient id="nLiKpYfjMMg2S87ClFzcbf" x1="0.5" x2="0.5" y1="0.15" y2="1.3">
    <stop offset="0" stop-color="#fed100" />
    <stop offset="1" stop-color="#e38101" />
  </linearGradient>
  <linearGradient id="nLiKpYfjMMg2S87ClFzcbg" x1="0.5" x2="0.5" y1="0.36" y2="1.32">
    <stop offset="0.02" stop-color="#A2392F" />

    <stop offset="1" stop-color="#C94F44" />
  </linearGradient>
  <linearGradient id="nLiKpYfjMMg2S87ClFzcbh" x1="0.5" x2="0.5" y1="-0.39" y2="1.43">
    <stop offset="0" stop-color="#2aa4f4" />
    <stop offset="1" stop-color="#007ad9" />
  </linearGradient>
  <g>
    <g id="svg_11" transform="translate(256,256) scale(0.7) translate(-256,-256)">
      <path
        d="m351.9,213.73c-11.84,0 -23.2,1.69 -33.72,4.71c-34.44,9.91 -91.85,9.91 -126.41,0c-10.51,-3.14 -21.87,-4.71 -33.72,-4.71c-57.77,0.12 -106.71,42.3 -108.53,93.66c-1.81,54.75 47.62,99.7 108.77,99.7c42.18,0 78.68,-21.39 96.68,-52.57c18.01,31.18 54.51,52.57 96.68,52.57c61.15,0 110.58,-44.96 108.77,-99.7c-1.81,-51.36 -50.76,-93.54 -108.53,-93.66z"
        fill="url(#nLiKpYfjMMg2S87ClFzcba)" id="svg_1" />
      <path
        d="m448.34,104.96l-374.65,0c-6.65,0 -12.09,-5.44 -12.09,-12.09s5.44,-12.09 12.09,-12.09l374.65,0c6.65,0 12.09,5.44 12.09,12.09s-5.44,12.09 -12.09,12.09z"
        fill="url(#nLiKpYfjMMg2S87ClFzcbb)" id="svg_2" />
      <path
        d="m73.69,68.7c-6.16,0 -11.48,-4.71 -11.96,-10.88c-0.73,-6.65 4.11,-12.57 10.76,-13.29l374.65,-36.26c6.65,-0.6 12.57,4.23 13.17,10.88c0.73,6.65 -4.11,12.57 -10.76,13.29l-374.65,36.26c-0.48,0 -0.85,0 -1.21,0z"
        fill="url(#nLiKpYfjMMg2S87ClFzcbc)" id="svg_3" />
      <path
        d="m158.29,298.32c-6.65,0 -12.09,-5.44 -12.09,-12.09c0,-9.91 -3.63,-14.26 -9.31,-20.91c-6.53,-7.98 -14.87,-17.77 -14.87,-36.5c0,-18.73 8.34,-28.64 14.87,-36.5c5.68,-6.65 9.31,-11 9.31,-20.91c0,-10.03 -3.63,-14.38 -9.31,-20.91c-6.53,-7.98 -14.87,-17.77 -14.87,-36.62c0,-18.73 8.34,-28.52 14.87,-36.38c5.68,-6.65 9.31,-11 9.31,-20.91c0,-6.65 5.44,-12.09 12.09,-12.09s12.09,5.44 12.09,12.09c0,18.73 -8.22,28.52 -14.87,36.5c-5.68,6.53 -9.31,10.88 -9.31,20.79c0,10.03 3.63,14.38 9.31,21.03c6.65,7.86 14.87,17.64 14.87,36.5c0,18.73 -8.22,28.52 -14.87,36.5c-5.68,6.53 -9.31,10.88 -9.31,20.91s3.63,14.26 9.31,20.91c6.65,7.86 14.87,17.77 14.87,36.5c0,6.65 -5.44,12.09 -12.09,12.09z"
        fill="url(#nLiKpYfjMMg2S87ClFzcbd)" id="svg_4" />
      <path
        d="m134.12,298.32c-6.65,0 -12.09,-5.44 -12.09,-12.09c0,-9.91 -3.63,-14.26 -9.31,-20.91c-6.53,-7.98 -14.87,-17.77 -14.87,-36.5c0,-18.73 8.34,-28.64 14.87,-36.5c5.68,-6.65 9.31,-11 9.31,-20.91c0,-10.03 -3.63,-14.38 -9.31,-20.91c-6.53,-7.98 -14.87,-17.77 -14.87,-36.62c0,-18.73 8.34,-28.52 14.87,-36.38c5.68,-6.65 9.31,-11 9.31,-20.91c0,-6.65 5.44,-12.09 12.09,-12.09s12.09,5.44 12.09,12.09c0,18.73 -8.34,28.52 -14.87,36.5c-5.68,6.53 -9.31,10.88 -9.31,20.79c0,10.03 3.63,14.38 9.31,21.03c6.53,7.86 14.87,17.64 14.87,36.5c0,18.73 -8.34,28.52 -14.87,36.5c-5.68,6.53 -9.31,10.88 -9.31,20.91s3.63,14.26 9.31,20.91c6.53,7.86 14.87,17.77 14.87,36.5c0,6.65 -5.44,12.09 -12.09,12.09z"
        fill="url(#nLiKpYfjMMg2S87ClFzcbe)" id="svg_5" />
      <path
        d="m109.95,298.32c-6.65,0 -12.09,-5.44 -12.09,-12.09c0,-9.91 -3.63,-14.26 -9.31,-20.91c-6.53,-7.98 -14.87,-17.77 -14.87,-36.5c0,-18.73 8.34,-28.64 14.87,-36.5c5.68,-6.65 9.31,-11 9.31,-20.91c0,-10.03 -3.63,-14.38 -9.31,-20.91c-6.53,-7.98 -14.87,-17.77 -14.87,-36.62c0,-18.73 8.34,-28.52 14.87,-36.38c5.68,-6.65 9.31,-11 9.31,-20.91c0,-6.65 5.44,-12.09 12.09,-12.09s12.09,5.44 12.09,12.09c0,18.73 -8.34,28.52 -14.87,36.5c-5.68,6.53 -9.31,10.88 -9.31,20.79c0,10.03 3.63,14.38 9.31,21.03c6.53,7.86 14.87,17.64 14.87,36.5c0,18.73 -8.34,28.52 -14.87,36.5c-5.68,6.53 -9.31,10.88 -9.31,20.91s3.63,14.26 9.31,20.91c6.53,7.86 14.87,17.77 14.87,36.5c0,6.65 -5.44,12.09 -12.09,12.09z"
        fill="url(#nLiKpYfjMMg2S87ClFzcbf)" id="svg_6" />
      <path
        d="m351.66,419.18l0,60.43c0,13.29 -10.88,24.17 -24.17,24.17l-145.03,0c-13.29,0 -24.17,-10.88 -24.17,-24.17l0,-60.43l193.37,0z"
        fill="url(#nLiKpYfjMMg2S87ClFzcbg)" id="svg_7" />
      <path
        d="m472.51,262.07l-435.08,0c-6.65,0 -12.09,5.44 -12.09,12.09l0,0c0,106.84 86.53,193.37 193.37,193.37l72.51,0c106.84,0 193.37,-86.53 193.37,-193.37l0,0c0,-6.65 -5.44,-12.09 -12.09,-12.09z"
        fill="url(#svg_10)" id="svg_8" />
    </g>
  </g>
</svg>